<mxfile host="app.diagrams.net" modified="2023-05-01T14:30:58.971Z" agent="Mozilla/5.0 (Windows NT 10.0; Win64; x64) AppleWebKit/537.36 (KHTML, like Gecko) Chrome/112.0.0.0 Safari/537.36" etag="9YoOy3kUXlvlKiHT9Hdg" version="21.2.3" type="github">
  <diagram id="C5RBs43oDa-KdzZeNtuy" name="Page-1">
    <mxGraphModel dx="1434" dy="764" grid="1" gridSize="10" guides="1" tooltips="1" connect="1" arrows="1" fold="1" page="1" pageScale="1" pageWidth="827" pageHeight="1169" math="0" shadow="0">
      <root>
        <mxCell id="WIyWlLk6GJQsqaUBKTNV-0" />
        <mxCell id="WIyWlLk6GJQsqaUBKTNV-1" parent="WIyWlLk6GJQsqaUBKTNV-0" />
        <mxCell id="hgT3ovTJ3lAhuqHBjHq7-3" value="" style="edgeStyle=orthogonalEdgeStyle;rounded=0;orthogonalLoop=1;jettySize=auto;html=1;" parent="WIyWlLk6GJQsqaUBKTNV-1" source="hgT3ovTJ3lAhuqHBjHq7-1" target="hgT3ovTJ3lAhuqHBjHq7-2" edge="1">
          <mxGeometry relative="1" as="geometry" />
        </mxCell>
        <mxCell id="hgT3ovTJ3lAhuqHBjHq7-1" value="Start" style="ellipse;whiteSpace=wrap;html=1;" parent="WIyWlLk6GJQsqaUBKTNV-1" vertex="1">
          <mxGeometry x="280" y="10" width="120" height="30" as="geometry" />
        </mxCell>
        <mxCell id="hgT3ovTJ3lAhuqHBjHq7-5" value="" style="edgeStyle=orthogonalEdgeStyle;rounded=0;orthogonalLoop=1;jettySize=auto;html=1;" parent="WIyWlLk6GJQsqaUBKTNV-1" source="hgT3ovTJ3lAhuqHBjHq7-2" target="hgT3ovTJ3lAhuqHBjHq7-4" edge="1">
          <mxGeometry relative="1" as="geometry" />
        </mxCell>
        <mxCell id="hgT3ovTJ3lAhuqHBjHq7-2" value="string array" style="rounded=0;whiteSpace=wrap;html=1;" parent="WIyWlLk6GJQsqaUBKTNV-1" vertex="1">
          <mxGeometry x="280" y="60" width="120" height="30" as="geometry" />
        </mxCell>
        <mxCell id="HZWIZFxz3Ez-i0Jf7gw3-1" value="" style="edgeStyle=orthogonalEdgeStyle;rounded=0;orthogonalLoop=1;jettySize=auto;html=1;" edge="1" parent="WIyWlLk6GJQsqaUBKTNV-1" source="hgT3ovTJ3lAhuqHBjHq7-4" target="HZWIZFxz3Ez-i0Jf7gw3-0">
          <mxGeometry relative="1" as="geometry" />
        </mxCell>
        <mxCell id="hgT3ovTJ3lAhuqHBjHq7-4" value="count = 0&lt;br&gt;i = 0" style="rounded=0;whiteSpace=wrap;html=1;" parent="WIyWlLk6GJQsqaUBKTNV-1" vertex="1">
          <mxGeometry x="280" y="120" width="120" height="50" as="geometry" />
        </mxCell>
        <mxCell id="HZWIZFxz3Ez-i0Jf7gw3-3" value="" style="edgeStyle=orthogonalEdgeStyle;rounded=0;orthogonalLoop=1;jettySize=auto;html=1;" edge="1" parent="WIyWlLk6GJQsqaUBKTNV-1" source="HZWIZFxz3Ez-i0Jf7gw3-0">
          <mxGeometry relative="1" as="geometry">
            <mxPoint x="340" y="310" as="targetPoint" />
          </mxGeometry>
        </mxCell>
        <mxCell id="HZWIZFxz3Ez-i0Jf7gw3-7" value="" style="edgeStyle=orthogonalEdgeStyle;rounded=0;orthogonalLoop=1;jettySize=auto;html=1;" edge="1" parent="WIyWlLk6GJQsqaUBKTNV-1" source="HZWIZFxz3Ez-i0Jf7gw3-0">
          <mxGeometry relative="1" as="geometry">
            <mxPoint x="450" y="240" as="targetPoint" />
          </mxGeometry>
        </mxCell>
        <mxCell id="HZWIZFxz3Ez-i0Jf7gw3-0" value="i &amp;gt; array.Length" style="rhombus;whiteSpace=wrap;html=1;" vertex="1" parent="WIyWlLk6GJQsqaUBKTNV-1">
          <mxGeometry x="275" y="200" width="130" height="80" as="geometry" />
        </mxCell>
        <mxCell id="HZWIZFxz3Ez-i0Jf7gw3-12" value="" style="edgeStyle=orthogonalEdgeStyle;rounded=0;orthogonalLoop=1;jettySize=auto;html=1;" edge="1" parent="WIyWlLk6GJQsqaUBKTNV-1" source="HZWIZFxz3Ez-i0Jf7gw3-4" target="HZWIZFxz3Ez-i0Jf7gw3-11">
          <mxGeometry relative="1" as="geometry" />
        </mxCell>
        <mxCell id="HZWIZFxz3Ez-i0Jf7gw3-15" value="" style="edgeStyle=orthogonalEdgeStyle;rounded=0;orthogonalLoop=1;jettySize=auto;html=1;" edge="1" parent="WIyWlLk6GJQsqaUBKTNV-1" source="HZWIZFxz3Ez-i0Jf7gw3-4" target="HZWIZFxz3Ez-i0Jf7gw3-14">
          <mxGeometry relative="1" as="geometry" />
        </mxCell>
        <mxCell id="HZWIZFxz3Ez-i0Jf7gw3-4" value="array[i].Length &amp;gt; 3" style="rhombus;whiteSpace=wrap;html=1;" vertex="1" parent="WIyWlLk6GJQsqaUBKTNV-1">
          <mxGeometry x="280" y="310" width="120" height="80" as="geometry" />
        </mxCell>
        <mxCell id="HZWIZFxz3Ez-i0Jf7gw3-5" value="No" style="text;html=1;strokeColor=none;fillColor=none;align=center;verticalAlign=middle;whiteSpace=wrap;rounded=0;" vertex="1" parent="WIyWlLk6GJQsqaUBKTNV-1">
          <mxGeometry x="340" y="290" width="36" height="10" as="geometry" />
        </mxCell>
        <mxCell id="HZWIZFxz3Ez-i0Jf7gw3-8" value="string[] result = new string[count];&lt;br&gt;i = 0" style="rounded=0;whiteSpace=wrap;html=1;" vertex="1" parent="WIyWlLk6GJQsqaUBKTNV-1">
          <mxGeometry x="450" y="215" width="120" height="50" as="geometry" />
        </mxCell>
        <mxCell id="HZWIZFxz3Ez-i0Jf7gw3-10" value="Yes" style="text;html=1;strokeColor=none;fillColor=none;align=center;verticalAlign=middle;whiteSpace=wrap;rounded=0;" vertex="1" parent="WIyWlLk6GJQsqaUBKTNV-1">
          <mxGeometry x="405" y="220" width="40" height="20" as="geometry" />
        </mxCell>
        <mxCell id="HZWIZFxz3Ez-i0Jf7gw3-11" value="count++" style="whiteSpace=wrap;html=1;" vertex="1" parent="WIyWlLk6GJQsqaUBKTNV-1">
          <mxGeometry x="290" y="420" width="100" height="30" as="geometry" />
        </mxCell>
        <mxCell id="HZWIZFxz3Ez-i0Jf7gw3-13" value="No" style="text;html=1;strokeColor=none;fillColor=none;align=center;verticalAlign=middle;whiteSpace=wrap;rounded=0;" vertex="1" parent="WIyWlLk6GJQsqaUBKTNV-1">
          <mxGeometry x="340" y="390" width="42" height="20" as="geometry" />
        </mxCell>
        <mxCell id="HZWIZFxz3Ez-i0Jf7gw3-14" value="i++" style="whiteSpace=wrap;html=1;" vertex="1" parent="WIyWlLk6GJQsqaUBKTNV-1">
          <mxGeometry x="180" y="335" width="60" height="30" as="geometry" />
        </mxCell>
        <mxCell id="HZWIZFxz3Ez-i0Jf7gw3-16" value="Yes" style="text;html=1;strokeColor=none;fillColor=none;align=center;verticalAlign=middle;whiteSpace=wrap;rounded=0;" vertex="1" parent="WIyWlLk6GJQsqaUBKTNV-1">
          <mxGeometry x="250" y="330" width="40" height="20" as="geometry" />
        </mxCell>
        <mxCell id="HZWIZFxz3Ez-i0Jf7gw3-17" value="" style="endArrow=classic;html=1;rounded=0;exitX=0;exitY=0.5;exitDx=0;exitDy=0;entryX=0.5;entryY=1;entryDx=0;entryDy=0;" edge="1" parent="WIyWlLk6GJQsqaUBKTNV-1" source="HZWIZFxz3Ez-i0Jf7gw3-11" target="HZWIZFxz3Ez-i0Jf7gw3-14">
          <mxGeometry width="50" height="50" relative="1" as="geometry">
            <mxPoint x="390" y="400" as="sourcePoint" />
            <mxPoint x="210" y="435" as="targetPoint" />
            <Array as="points">
              <mxPoint x="210" y="435" />
            </Array>
          </mxGeometry>
        </mxCell>
        <mxCell id="HZWIZFxz3Ez-i0Jf7gw3-18" value="" style="endArrow=classic;html=1;rounded=0;exitX=0.5;exitY=0;exitDx=0;exitDy=0;entryX=0;entryY=0.5;entryDx=0;entryDy=0;" edge="1" parent="WIyWlLk6GJQsqaUBKTNV-1" source="HZWIZFxz3Ez-i0Jf7gw3-14" target="HZWIZFxz3Ez-i0Jf7gw3-0">
          <mxGeometry width="50" height="50" relative="1" as="geometry">
            <mxPoint x="390" y="400" as="sourcePoint" />
            <mxPoint x="440" y="350" as="targetPoint" />
            <Array as="points">
              <mxPoint x="210" y="240" />
            </Array>
          </mxGeometry>
        </mxCell>
        <mxCell id="HZWIZFxz3Ez-i0Jf7gw3-22" value="" style="edgeStyle=orthogonalEdgeStyle;rounded=0;orthogonalLoop=1;jettySize=auto;html=1;" edge="1" parent="WIyWlLk6GJQsqaUBKTNV-1" source="HZWIZFxz3Ez-i0Jf7gw3-19" target="HZWIZFxz3Ez-i0Jf7gw3-21">
          <mxGeometry relative="1" as="geometry">
            <Array as="points">
              <mxPoint x="535" y="450" />
            </Array>
          </mxGeometry>
        </mxCell>
        <mxCell id="HZWIZFxz3Ez-i0Jf7gw3-19" value="i &amp;gt; array.Length" style="rhombus;whiteSpace=wrap;html=1;" vertex="1" parent="WIyWlLk6GJQsqaUBKTNV-1">
          <mxGeometry x="470" y="310" width="130" height="80" as="geometry" />
        </mxCell>
        <mxCell id="HZWIZFxz3Ez-i0Jf7gw3-31" value="" style="edgeStyle=orthogonalEdgeStyle;rounded=0;orthogonalLoop=1;jettySize=auto;html=1;" edge="1" parent="WIyWlLk6GJQsqaUBKTNV-1" source="HZWIZFxz3Ez-i0Jf7gw3-21" target="HZWIZFxz3Ez-i0Jf7gw3-30">
          <mxGeometry relative="1" as="geometry" />
        </mxCell>
        <mxCell id="HZWIZFxz3Ez-i0Jf7gw3-36" value="" style="edgeStyle=orthogonalEdgeStyle;rounded=0;orthogonalLoop=1;jettySize=auto;html=1;" edge="1" parent="WIyWlLk6GJQsqaUBKTNV-1" source="HZWIZFxz3Ez-i0Jf7gw3-21" target="HZWIZFxz3Ez-i0Jf7gw3-35">
          <mxGeometry relative="1" as="geometry" />
        </mxCell>
        <mxCell id="HZWIZFxz3Ez-i0Jf7gw3-21" value="array[i].Length &amp;gt; 3" style="rhombus;whiteSpace=wrap;html=1;" vertex="1" parent="WIyWlLk6GJQsqaUBKTNV-1">
          <mxGeometry x="570" y="410" width="120" height="80" as="geometry" />
        </mxCell>
        <mxCell id="HZWIZFxz3Ez-i0Jf7gw3-23" value="No" style="text;html=1;strokeColor=none;fillColor=none;align=center;verticalAlign=middle;whiteSpace=wrap;rounded=0;" vertex="1" parent="WIyWlLk6GJQsqaUBKTNV-1">
          <mxGeometry x="500" y="390" width="36" height="10" as="geometry" />
        </mxCell>
        <mxCell id="HZWIZFxz3Ez-i0Jf7gw3-24" value="" style="endArrow=classic;html=1;rounded=0;exitX=0.7;exitY=0.96;exitDx=0;exitDy=0;entryX=0.5;entryY=0;entryDx=0;entryDy=0;exitPerimeter=0;" edge="1" parent="WIyWlLk6GJQsqaUBKTNV-1" source="HZWIZFxz3Ez-i0Jf7gw3-8">
          <mxGeometry width="50" height="50" relative="1" as="geometry">
            <mxPoint x="540" y="265" as="sourcePoint" />
            <mxPoint x="535" y="310" as="targetPoint" />
          </mxGeometry>
        </mxCell>
        <mxCell id="HZWIZFxz3Ez-i0Jf7gw3-28" value="" style="edgeStyle=orthogonalEdgeStyle;rounded=0;orthogonalLoop=1;jettySize=auto;html=1;" edge="1" parent="WIyWlLk6GJQsqaUBKTNV-1" source="HZWIZFxz3Ez-i0Jf7gw3-25" target="HZWIZFxz3Ez-i0Jf7gw3-27">
          <mxGeometry relative="1" as="geometry" />
        </mxCell>
        <mxCell id="HZWIZFxz3Ez-i0Jf7gw3-25" value="output result[]" style="shape=parallelogram;perimeter=parallelogramPerimeter;whiteSpace=wrap;html=1;fixedSize=1;" vertex="1" parent="WIyWlLk6GJQsqaUBKTNV-1">
          <mxGeometry x="376" y="490" width="120" height="60" as="geometry" />
        </mxCell>
        <mxCell id="HZWIZFxz3Ez-i0Jf7gw3-26" value="" style="endArrow=classic;html=1;rounded=0;exitX=0;exitY=0.5;exitDx=0;exitDy=0;entryX=0.558;entryY=-0.05;entryDx=0;entryDy=0;entryPerimeter=0;" edge="1" parent="WIyWlLk6GJQsqaUBKTNV-1" source="HZWIZFxz3Ez-i0Jf7gw3-19" target="HZWIZFxz3Ez-i0Jf7gw3-25">
          <mxGeometry width="50" height="50" relative="1" as="geometry">
            <mxPoint x="390" y="400" as="sourcePoint" />
            <mxPoint x="440" y="350" as="targetPoint" />
            <Array as="points">
              <mxPoint x="440" y="350" />
            </Array>
          </mxGeometry>
        </mxCell>
        <mxCell id="HZWIZFxz3Ez-i0Jf7gw3-27" value="END" style="ellipse;whiteSpace=wrap;html=1;" vertex="1" parent="WIyWlLk6GJQsqaUBKTNV-1">
          <mxGeometry x="396" y="620" width="80" height="30" as="geometry" />
        </mxCell>
        <mxCell id="HZWIZFxz3Ez-i0Jf7gw3-29" value="Yes" style="text;html=1;strokeColor=none;fillColor=none;align=center;verticalAlign=middle;whiteSpace=wrap;rounded=0;" vertex="1" parent="WIyWlLk6GJQsqaUBKTNV-1">
          <mxGeometry x="436" y="330" width="40" height="20" as="geometry" />
        </mxCell>
        <mxCell id="HZWIZFxz3Ez-i0Jf7gw3-30" value="i++" style="whiteSpace=wrap;html=1;" vertex="1" parent="WIyWlLk6GJQsqaUBKTNV-1">
          <mxGeometry x="720" y="435" width="60" height="30" as="geometry" />
        </mxCell>
        <mxCell id="HZWIZFxz3Ez-i0Jf7gw3-32" value="" style="endArrow=classic;html=1;rounded=0;exitX=0.5;exitY=0;exitDx=0;exitDy=0;entryX=1;entryY=0.5;entryDx=0;entryDy=0;" edge="1" parent="WIyWlLk6GJQsqaUBKTNV-1" source="HZWIZFxz3Ez-i0Jf7gw3-30" target="HZWIZFxz3Ez-i0Jf7gw3-19">
          <mxGeometry width="50" height="50" relative="1" as="geometry">
            <mxPoint x="390" y="400" as="sourcePoint" />
            <mxPoint x="440" y="350" as="targetPoint" />
            <Array as="points">
              <mxPoint x="750" y="350" />
            </Array>
          </mxGeometry>
        </mxCell>
        <mxCell id="HZWIZFxz3Ez-i0Jf7gw3-33" value="Yes" style="text;html=1;strokeColor=none;fillColor=none;align=center;verticalAlign=middle;whiteSpace=wrap;rounded=0;" vertex="1" parent="WIyWlLk6GJQsqaUBKTNV-1">
          <mxGeometry x="680" y="430" width="40" height="20" as="geometry" />
        </mxCell>
        <mxCell id="HZWIZFxz3Ez-i0Jf7gw3-34" value="No" style="text;html=1;strokeColor=none;fillColor=none;align=center;verticalAlign=middle;whiteSpace=wrap;rounded=0;" vertex="1" parent="WIyWlLk6GJQsqaUBKTNV-1">
          <mxGeometry x="590" y="500" width="36" height="10" as="geometry" />
        </mxCell>
        <mxCell id="HZWIZFxz3Ez-i0Jf7gw3-35" value="result[array.Length - count] = array[i];&lt;br&gt;count--" style="whiteSpace=wrap;html=1;" vertex="1" parent="WIyWlLk6GJQsqaUBKTNV-1">
          <mxGeometry x="540" y="525" width="180" height="60" as="geometry" />
        </mxCell>
        <mxCell id="HZWIZFxz3Ez-i0Jf7gw3-37" value="" style="endArrow=classic;html=1;rounded=0;exitX=1;exitY=0.5;exitDx=0;exitDy=0;entryX=0.5;entryY=1;entryDx=0;entryDy=0;" edge="1" parent="WIyWlLk6GJQsqaUBKTNV-1" source="HZWIZFxz3Ez-i0Jf7gw3-35" target="HZWIZFxz3Ez-i0Jf7gw3-30">
          <mxGeometry width="50" height="50" relative="1" as="geometry">
            <mxPoint x="390" y="380" as="sourcePoint" />
            <mxPoint x="440" y="330" as="targetPoint" />
            <Array as="points">
              <mxPoint x="750" y="555" />
            </Array>
          </mxGeometry>
        </mxCell>
      </root>
    </mxGraphModel>
  </diagram>
</mxfile>
